<svg width="28" height="29" viewBox="0 0 28 29" fill="none" xmlns="http://www.w3.org/2000/svg">
    <path fill-rule="evenodd" clip-rule="evenodd" d="M12.7125 10.1853L11.4091 11.9234C10.9078 12.5919 10.0749 12.9241 9.2512 12.7841L6.58517 12.331L8.52621 18.9103C12.2443 19.8933 16.1536 19.898 19.8736 18.9245L21.4379 12.3222L18.8343 12.7813C18.0252 12.924 17.2031 12.6102 16.6948 11.9646L15.2939 10.1853L12.7125 10.1853ZM16.0579 8.61084L17.9317 10.9908C18.0812 11.1807 18.323 11.273 18.561 11.231L21.5573 10.7026C22.4861 10.5389 23.279 11.3793 23.0617 12.297L21.1923 20.1868C16.6519 21.5715 11.8019 21.5715 7.26152 20.1868L4.95628 12.3731C4.6817 11.4424 5.47765 10.546 6.43431 10.7086L9.51495 11.2321C9.75723 11.2733 10.0022 11.1756 10.1496 10.979L11.9254 8.61084H16.0579Z" fill="white"/>
    <path fill-rule="evenodd" clip-rule="evenodd" d="M7.02051 21.8672C7.02051 22.0609 7.15423 22.2289 7.343 22.2725L8.50988 22.5415C12.2725 23.4091 16.1831 23.4091 19.9457 22.5415L21.1126 22.2724C21.3013 22.2289 21.4351 22.0609 21.4351 21.8673H23.0093C23.0093 22.7941 22.3695 23.5982 21.4664 23.8065L20.2993 24.0755C16.304 24.9967 12.1515 24.9967 8.1562 24.0755L6.98932 23.8065C6.08613 23.5982 5.44627 22.7941 5.44629 21.8672H7.02051Z" fill="#05C3DD"/>
    <path fill-rule="evenodd" clip-rule="evenodd" d="M13.942 8.03725C14.5577 8.03725 15.0568 7.53814 15.0568 6.92243C15.0568 6.30674 14.5577 5.80762 13.942 5.80762C13.3263 5.80762 12.8271 6.30674 12.8271 6.92243C12.8271 7.53814 13.3263 8.03725 13.942 8.03725ZM13.942 9.61147C15.4271 9.61147 16.631 8.40755 16.631 6.92243C16.631 5.43732 15.4271 4.2334 13.942 4.2334C12.4569 4.2334 11.2529 5.43732 11.2529 6.92243C11.2529 8.40755 12.4569 9.61147 13.942 9.61147Z" fill="white"/>
    <path fill-rule="evenodd" clip-rule="evenodd" d="M13.1543 16.8027V13.6631H14.7285V16.8027H13.1543Z" fill="white"/>
</svg>
