<svg width="20" height="20" viewBox="0 0 20 20" fill="none" xmlns="http://www.w3.org/2000/svg">
    <path d="M11.6452 4.7C12.0318 4.7 12.3452 4.3866 12.3452 4C12.3452 3.6134 12.0318 3.3 11.6452 3.3V4.7ZM7.29032 4V3.3H6.97172L6.76247 3.54025L7.29032 4ZM1 8.3C0.613401 8.3 0.3 8.6134 0.3 9C0.3 9.3866 0.613401 9.7 1 9.7V8.3ZM16 9.7C16.3866 9.7 16.7 9.3866 16.7 9C16.7 8.6134 16.3866 8.3 16 8.3V9.7ZM8.74194 15L8.23891 15.4868L8.44524 15.7H8.74194V15ZM14.0645 15.7C14.4511 15.7 14.7645 15.3866 14.7645 15C14.7645 14.6134 14.4511 14.3 14.0645 14.3V15.7ZM11.6452 3.3H7.29032V4.7H11.6452V3.3ZM6.76247 3.54025L2.40763 8.54025L3.46334 9.45975L7.81818 4.45975L6.76247 3.54025ZM2.93548 8.3H1V9.7H2.93548V8.3ZM16 8.3H2.93548V9.7H16V8.3ZM8.74194 15.7H14.0645V14.3H8.74194V15.7ZM9.24496 14.5132L3.43851 8.51321L2.43246 9.48679L8.23891 15.4868L9.24496 14.5132ZM1 9.7H8.5V8.3H1V9.7ZM8.5 9.7H16V8.3H8.5V9.7Z" fill="white"/>
    <circle cx="13" cy="4" r="2" fill="white"/>
    <circle cx="17" cy="9" r="2" fill="white"/>
    <circle cx="15" cy="15" r="2" fill="white"/>
</svg>
