<svg width="30" height="31" viewBox="0 0 30 31" fill="none" xmlns="http://www.w3.org/2000/svg">
    <path fill-rule="evenodd" clip-rule="evenodd" d="M14.2332 6.16316C9.42845 6.55266 5.65001 10.5766 5.65001 15.4821C5.65001 16.8717 5.9526 18.1883 6.49469 19.3716L4.9946 20.0588C4.35571 18.6642 4 17.1136 4 15.4821C4 9.70999 8.44536 4.97694 14.0999 4.51855L14.2332 6.16316ZM7.40584 20.9378C9.10467 23.298 11.8731 24.832 14.9999 24.832C18.1267 24.832 20.8952 23.298 22.594 20.9378L23.9332 21.9018C21.9376 24.6742 18.6799 26.482 14.9999 26.482C11.32 26.482 8.06224 24.6742 6.06667 21.9018L7.40584 20.9378Z" fill="white"/>
    <path fill-rule="evenodd" clip-rule="evenodd" d="M24.3498 15.4821C24.3498 10.5766 20.5714 6.55266 15.7666 6.16316L15.9 4.51855C21.5545 4.97694 25.9999 9.70999 25.9999 15.4821C25.9999 17.1136 25.6441 18.6642 25.0053 20.0588L23.5052 19.3716C24.0473 18.1883 24.3498 16.8717 24.3498 15.4821Z" fill="#05C3DD"/>
    <path fill-rule="evenodd" clip-rule="evenodd" d="M16.8226 8.47849C17.2152 8.7097 17.346 9.2154 17.1148 9.60802L14.2897 14.4055H18.1828C18.4803 14.4055 18.7547 14.5656 18.901 14.8246C19.0474 15.0835 19.043 15.4012 18.8896 15.656L14.9293 22.234C14.6943 22.6243 14.1874 22.7502 13.797 22.5152C13.4067 22.2802 13.2807 21.7733 13.5158 21.3829L16.7231 16.0555H12.8465C12.5505 16.0555 12.2772 15.8969 12.1303 15.6399C11.9833 15.3829 11.9854 15.0669 12.1356 14.8119L15.693 8.77076C15.9242 8.37814 16.4299 8.24729 16.8226 8.47849Z" fill="#05C3DD"/>
</svg>
