<svg width="28" height="29" viewBox="0 0 28 29" fill="none" xmlns="http://www.w3.org/2000/svg">
    <path fill-rule="evenodd" clip-rule="evenodd" d="M15.8304 24.3557C14.731 25.4854 12.9162 25.4854 11.8168 24.3557L2.6654 14.951C1.8138 14.0758 1.62758 12.7497 2.20519 11.6738L5.40105 5.72115C5.88888 4.81252 6.83669 4.24561 7.868 4.24561H19.7792C20.8105 4.24561 21.7583 4.81252 22.2462 5.72115L25.442 11.6738C26.0196 12.7497 25.8333 14.0758 24.9818 14.951L15.8304 24.3557ZM13.1547 23.0539C13.5211 23.4305 14.1261 23.4305 14.4925 23.0539L23.6439 13.6491C23.9279 13.3574 23.9899 12.9154 23.7974 12.5568L20.6015 6.60412C20.4389 6.30124 20.1229 6.11227 19.7792 6.11227H7.868C7.52423 6.11227 7.20829 6.30124 7.04568 6.60412L3.84981 12.5568C3.65729 12.9154 3.71935 13.3574 4.00323 13.6491L13.1547 23.0539Z" fill="white"/>
    <path d="M12.1906 10.086C12.1906 10.7828 11.6258 11.3477 10.9289 11.3477C10.2321 11.3477 9.66716 10.7828 9.66716 10.086C9.66716 9.38912 10.2321 8.82422 10.9289 8.82422C11.6258 8.82422 12.1906 9.38912 12.1906 10.086Z" fill="#05C3DD"/>
    <path d="M9.66699 16.1598L17.0024 8.82437L18.2182 10.0401L10.8827 17.3755L9.66699 16.1598Z" fill="#05C3DD"/>
    <path d="M16.9562 17.3752C17.6531 17.3752 18.2179 16.8103 18.2179 16.1135C18.2179 15.4166 17.6531 14.8518 16.9562 14.8518C16.2594 14.8518 15.6944 15.4166 15.6944 16.1135C15.6944 16.8103 16.2594 17.3752 16.9562 17.3752Z" fill="#05C3DD"/>
</svg>
