<svg width="20" height="20" viewBox="0 0 20 20" fill="none" xmlns="http://www.w3.org/2000/svg">
    <path fill-rule="evenodd" clip-rule="evenodd" d="M9.63533 4.7486C8.52076 4.7486 7.43123 5.0791 6.50451 5.69832C5.57779 6.31753 4.85549 7.19765 4.42897 8.22737C4.00244 9.25709 3.89084 10.3902 4.10829 11.4833C4.32573 12.5764 4.86244 13.5806 5.65055 14.3687C6.43866 15.1568 7.44279 15.6935 8.53593 15.9109C9.62907 16.1284 10.7621 16.0168 11.7919 15.5903C12.8216 15.1638 13.7017 14.4414 14.321 13.5148C14.9401 12.588 15.2706 11.4984 15.2706 10.3839C15.2706 10.0387 15.5505 9.75892 15.8956 9.75892C16.2408 9.75892 16.5206 10.0387 16.5206 10.3839C16.5206 11.7457 16.1168 13.0769 15.3603 14.2092C14.6037 15.3414 13.5284 16.224 12.2702 16.7451C11.0121 17.2663 9.62769 17.4026 8.29206 17.1369C6.95644 16.8713 5.72959 16.2155 4.76667 15.2526C3.80374 14.2896 3.14797 13.0628 2.8823 11.7272C2.61663 10.3916 2.75298 9.00715 3.27412 7.74902C3.79525 6.49089 4.67776 5.41555 5.81004 4.65898C6.94233 3.90242 8.27354 3.4986 9.63533 3.4986C9.9805 3.4986 10.2603 3.77842 10.2603 4.1236C10.2603 4.46877 9.9805 4.7486 9.63533 4.7486Z" fill="white"/>
    <path fill-rule="evenodd" clip-rule="evenodd" d="M15.807 7.06145C15.4901 6.42695 15.0662 5.84822 14.551 5.35202C14.0357 4.85581 13.4415 4.45393 12.7955 4.16116L11.8952 8.10961L15.807 7.06145ZM17.2 7.12132C17.3677 7.54992 17.0995 8.00922 16.655 8.12833L11.551 9.49594C10.9447 9.65839 10.3833 9.11769 10.5228 8.50575L11.6975 3.35392C11.7998 2.90521 12.2487 2.61998 12.6833 2.77141C13.7024 3.1265 14.636 3.69853 15.418 4.45167C16.2001 5.20479 16.8069 6.11632 17.2 7.12132Z" fill="white"/>
</svg>
