<svg width="28" height="29" viewBox="-1 -1 30 31" fill="none" xmlns="http://www.w3.org/2000/svg">
    <path d="M18.2008 14.4998C18.2008 16.8194 16.3204 18.6998 14.0008 18.6998C11.6812 18.6998 9.80078 16.8194 9.80078 14.4998C9.80078 12.1802 11.6812 10.2998 14.0008 10.2998C16.3204 10.2998 18.2008 12.1802 18.2008 14.4998Z" stroke="#05C3DD" stroke-width="2.1"/>
    <path d="M17.1504 11.3501L22.4004 6.1001" stroke="#05C3DD" stroke-width="2.1"/>
    <path fill-rule="evenodd" clip-rule="evenodd" d="M24.6683 7.79183C25.8922 9.73426 26.6004 12.0344 26.6004 14.4999C26.6004 21.4587 20.9592 27.0999 14.0004 27.0999C7.0416 27.0999 1.40039 21.4587 1.40039 14.4999C1.40039 7.54111 7.0416 1.8999 14.0004 1.8999C16.4659 1.8999 18.766 2.60805 20.7085 3.83204L19.1776 5.3629C17.6498 4.49532 15.8829 3.9999 14.0004 3.9999C8.2014 3.9999 3.50039 8.70091 3.50039 14.4999C3.50039 20.2989 8.2014 24.9999 14.0004 24.9999C19.7994 24.9999 24.5004 20.2989 24.5004 14.4999C24.5004 12.6174 24.005 10.8505 23.1374 9.32269L24.6683 7.79183Z" fill="white"/>
</svg>
