<svg width="60" height="24" viewBox="0 0 60 24" fill="none" xmlns="http://www.w3.org/2000/svg">
    <path d="M16.4439 1.95361H13.5361V4.88895H16.4439V1.95361Z" fill="white"/>
    <path d="M13.5359 0H11.6006V1.95363H13.5359V0Z" fill="white"/>
    <path d="M9.19012 18.5344C6.7909 18.5344 4.84529 16.571 4.84529 14.1497V6.82959H-0.000976562V14.1679C0.00936213 19.2839 4.12029 23.428 9.19077 23.428C14.2613 23.428 18.3825 19.2735 18.3825 14.149V9.76493H13.5343V14.149C13.5343 16.5703 11.5893 18.5338 9.18948 18.5338L9.19012 18.5344Z" fill="white"/>
    <path d="M13.5349 4.88916H8.7041V9.76574H13.5349V4.88916Z" fill="white"/>
    <path d="M22.2508 5.86035H18.3828V9.765H22.2508V5.86035Z" fill="white"/>
    <path d="M46.4942 9.88232H36.8004V12.333H42.6172L36.3145 19.1821V21.6439H46.4942V19.1821H40.1941L46.4942 12.333V9.88232Z" fill="white"/>
    <path d="M32.922 9.88232V16.7314C32.922 18.0824 31.8371 19.1776 30.4989 19.1776C29.1606 19.1776 28.0757 18.0824 28.0757 16.7314V9.88232H25.168V16.7314C25.168 18.8227 26.3498 20.6354 28.0757 21.5258C28.8027 21.9016 29.6265 22.1129 30.4989 22.1129C31.3712 22.1129 32.195 21.8996 32.922 21.5245C34.6473 20.6335 35.8297 18.8221 35.8297 16.7314V9.88232H32.922Z" fill="white"/>
    <path d="M53.3152 13.188L47.4609 21.6274H51.011L55.0896 15.7463L53.3152 13.188Z" fill="white"/>
    <path d="M55.0894 15.7471H51.54L47.4717 9.88232H51.0217L55.0894 15.7471Z" fill="white"/>
    <path d="M55.5338 16.3862L53.7588 18.9452L55.6198 21.6274H59.1692L55.5338 16.3862Z" fill="white"/>
    <path d="M55.5338 15.1072L59.1582 9.88232H55.6081L53.7588 12.5483L55.5338 15.1072Z" fill="white"/>
</svg>
