<svg width="30" height="31" viewBox="0 0 30 31" fill="none" xmlns="http://www.w3.org/2000/svg">
    <path fill-rule="evenodd" clip-rule="evenodd" d="M3.7666 10.7188C3.7666 9.06192 5.10975 7.71877 6.7666 7.71877H23.2333C24.8902 7.71877 26.2333 9.06192 26.2333 10.7188V20.0373C26.2333 21.6942 24.8902 23.0373 23.2333 23.0373H6.7666C5.10975 23.0373 3.7666 21.6942 3.7666 20.0373V10.7188ZM6.7666 9.71877C6.21432 9.71877 5.7666 10.1665 5.7666 10.7188V20.0373C5.7666 20.5896 6.21432 21.0373 6.7666 21.0373H23.2333C23.7856 21.0373 24.2333 20.5896 24.2333 20.0373V10.7188C24.2333 10.1665 23.7856 9.71877 23.2333 9.71877H6.7666Z" fill="white"/>
    <path fill-rule="evenodd" clip-rule="evenodd" d="M3.7666 26.7965C3.7666 26.2442 4.21432 25.7965 4.7666 25.7965H25.2333C25.7856 25.7965 26.2333 26.2442 26.2333 26.7965C26.2333 27.3488 25.7856 27.7965 25.2333 27.7965H4.7666C4.21432 27.7965 3.7666 27.3488 3.7666 26.7965Z" fill="white"/>
    <path fill-rule="evenodd" clip-rule="evenodd" d="M3.76697 3.9834C3.76697 3.43111 4.21468 2.9834 4.76697 2.9834H25.2336C25.7859 2.9834 26.2336 3.43111 26.2336 3.9834C26.2336 4.53569 25.7859 4.9834 25.2336 4.9834H4.76697C4.21468 4.9834 3.76697 4.53569 3.76697 3.9834Z" fill="white"/>
    <path fill-rule="evenodd" clip-rule="evenodd" d="M9.30469 14.6484C9.85697 14.6484 10.3047 15.0961 10.3047 15.6484V17.8073C10.3047 18.3596 9.85697 18.8073 9.30469 18.8073C8.7524 18.8073 8.30469 18.3596 8.30469 17.8073V15.6484C8.30469 15.0961 8.7524 14.6484 9.30469 14.6484Z" fill="#05C3DD"/>
    <path fill-rule="evenodd" clip-rule="evenodd" d="M20.6964 13.681C21.2487 13.681 21.6964 14.1287 21.6964 14.681V17.8074C21.6964 18.3597 21.2487 18.8074 20.6964 18.8074C20.1441 18.8074 19.6964 18.3597 19.6964 17.8074V14.681C19.6964 14.1287 20.1441 13.681 20.6964 13.681Z" fill="#05C3DD"/>
    <path fill-rule="evenodd" clip-rule="evenodd" d="M13.1016 12.9259C13.6539 12.9259 14.1016 13.3736 14.1016 13.9259V18.2229C14.1016 18.7752 13.6539 19.2229 13.1016 19.2229C12.5493 19.2229 12.1016 18.7752 12.1016 18.2229V13.9259C12.1016 13.3736 12.5493 12.9259 13.1016 12.9259Z" fill="#05C3DD"/>
    <path fill-rule="evenodd" clip-rule="evenodd" d="M16.899 11.5322C17.4513 11.5322 17.899 11.9799 17.899 12.5322V16.8293C17.899 17.3816 17.4513 17.8293 16.899 17.8293C16.3467 17.8293 15.899 17.3816 15.899 16.8293V12.5322C15.899 11.9799 16.3467 11.5322 16.899 11.5322Z" fill="#05C3DD"/>
</svg>
