<svg width="30" height="31" viewBox="0 0 30 31" fill="none" xmlns="http://www.w3.org/2000/svg">
    <path fill-rule="evenodd" clip-rule="evenodd" d="M2.40625 7.92774C2.40625 6.27088 3.7494 4.92773 5.40625 4.92773H24.335C25.9918 4.92773 27.335 6.27088 27.335 7.92774V19.9656C27.335 21.6225 25.9918 22.9656 24.335 22.9656H5.40625C3.7494 22.9656 2.40625 21.6225 2.40625 19.9656V7.92774ZM5.40625 6.92774C4.85397 6.92774 4.40625 7.37545 4.40625 7.92774V19.9656C4.40625 20.5179 4.85397 20.9656 5.40625 20.9656H24.335C24.8872 20.9656 25.335 20.5179 25.335 19.9656V7.92774C25.335 7.37545 24.8872 6.92774 24.335 6.92774H5.40625Z" fill="white"/>
    <path fill-rule="evenodd" clip-rule="evenodd" d="M8.74219 26.1318C8.74219 25.5796 9.1899 25.1318 9.74219 25.1318H20.2823C20.8346 25.1318 21.2823 25.5796 21.2823 26.1318C21.2823 26.6841 20.8346 27.1318 20.2823 27.1318H9.74219C9.1899 27.1318 8.74219 26.6841 8.74219 26.1318Z" fill="#05C3DD"/>
    <path fill-rule="evenodd" clip-rule="evenodd" d="M20.8092 9.94591C21.1894 10.3465 21.1728 10.9795 20.7722 11.3596L14.6924 17.1294C14.2339 17.5645 13.5164 17.5693 13.0521 17.1405L10.3898 14.6814C9.98415 14.3066 9.95905 13.674 10.3338 13.2683C10.7085 12.8626 11.3412 12.8375 11.7469 13.2122L13.8589 15.1631L19.3954 9.90892C19.7961 9.52874 20.429 9.54531 20.8092 9.94591Z" fill="white"/>
</svg>
