<svg width="20" height="20" viewBox="0 0 20 20" fill="none" xmlns="http://www.w3.org/2000/svg">
    <path fill-rule="evenodd" clip-rule="evenodd" d="M7.21223 4.25489C6.88473 4.25489 6.58212 4.42959 6.41838 4.71322L3.63063 9.54174C3.46688 9.82536 3.46688 10.1748 3.63063 10.4584L6.41838 15.2869C6.58212 15.5706 6.88473 15.7452 7.21223 15.7452H12.7877C13.1152 15.7452 13.4179 15.5706 13.5815 15.2869L16.3693 10.4584C16.533 10.1748 16.533 9.82536 16.3693 9.54174L13.5815 4.71322C13.4179 4.42959 13.1152 4.25489 12.7877 4.25489H7.21223ZM5.11933 3.96322C5.55103 3.2155 6.34883 2.75488 7.21223 2.75488H12.7877C13.6511 2.75488 14.449 3.2155 14.8806 3.96322L17.6684 8.79174C18.1 9.53946 18.1 10.4607 17.6684 11.2084L14.8806 16.0369C14.449 16.7846 13.6511 17.2452 12.7877 17.2452H7.21223C6.34883 17.2452 5.55103 16.7846 5.11933 16.0369L2.33158 11.2084C1.89989 10.4607 1.89989 9.53946 2.33158 8.79174L5.11933 3.96322ZM9.99996 8.60335C9.22859 8.60335 8.60326 9.22869 8.60326 10.0001C8.60326 10.7715 9.22859 11.3968 9.99996 11.3968C10.7714 11.3968 11.3967 10.7715 11.3967 10.0001C11.3967 9.22869 10.7714 8.60335 9.99996 8.60335ZM7.10326 10.0001C7.10326 8.40026 8.40016 7.10335 9.99996 7.10335C11.5998 7.10335 12.8967 8.40026 12.8967 10.0001C12.8967 11.5999 11.5998 12.8968 9.99996 12.8968C8.40016 12.8968 7.10326 11.5999 7.10326 10.0001Z" fill="white"/>
</svg>
