<svg width="28" height="29" viewBox="0 0 28 29" fill="none" xmlns="http://www.w3.org/2000/svg">
    <path d="M13.9986 26.6334C13.6841 26.6334 13.3697 26.5439 13.0964 26.3674C12.1774 25.7748 11.2898 25.2717 10.4336 24.7856C6.85414 22.7612 3.76562 21.0126 3.76562 15.0799V6.14571C3.76562 5.40079 4.37027 4.78405 5.11519 4.76955C5.87461 4.75503 7.82156 4.68248 9.50246 4.33904C11.1108 4.0077 12.7506 2.93143 13.215 2.60977C13.6841 2.28568 14.313 2.28568 14.7822 2.60977C15.2465 2.93143 16.8863 4.01011 18.4971 4.33904C20.1756 4.68489 22.1249 4.75503 22.8844 4.76955C23.6293 4.78405 24.234 5.40079 24.234 6.14571V15.0799C24.234 21.0126 21.1454 22.7612 17.5684 24.7856C16.7122 25.2717 15.8246 25.7724 14.9055 26.3674C14.6322 26.5439 14.3178 26.6334 14.0034 26.6334H13.9986ZM5.70048 6.68746V15.0799C5.70048 19.8831 7.8409 21.0949 11.3841 23.1023C12.2209 23.5763 13.0844 24.0648 13.9962 24.6477C14.9079 24.0648 15.7714 23.5763 16.6082 23.1023C20.1538 21.0949 22.2918 19.8831 22.2918 15.0799V6.68746C21.2905 6.65118 19.6097 6.54235 18.1029 6.23277C16.4317 5.88934 14.8354 4.96303 13.9962 4.4116C13.1545 4.96303 11.5582 5.88934 9.88943 6.23277C8.38025 6.54235 6.70176 6.65118 5.70048 6.68746Z" fill="white"/>
    <path d="M15.0451 9.91148C15.0451 9.33177 14.5757 8.86182 13.9967 8.86182C13.4177 8.86182 12.9482 9.33177 12.9482 9.91148V13.8175C12.9482 14.3972 13.4177 14.8671 13.9967 14.8671C14.5757 14.8671 15.0451 14.3972 15.0451 13.8175V9.91148Z" fill="#05C3DD"/>
    <path d="M13.9979 19.194C14.5776 19.194 15.0475 18.724 15.0475 18.1444C15.0475 17.5647 14.5776 17.0947 13.9979 17.0947C13.4182 17.0947 12.9482 17.5647 12.9482 18.1444C12.9482 18.724 13.4182 19.194 13.9979 19.194Z" fill="#05C3DD"/>
</svg>
