<svg width="28" height="29" viewBox="0 0 28 29" fill="none" xmlns="http://www.w3.org/2000/svg">
    <path fill-rule="evenodd" clip-rule="evenodd" d="M12.9053 7.23327H11.779C10.3471 7.23327 9.18639 8.394 9.18639 9.82585V12.2195C9.18639 13.6513 10.3471 14.8121 11.779 14.8121H12.9053C14.3371 14.8121 15.4979 13.6513 15.4979 12.2195V9.82585C15.4979 8.394 14.3371 7.23327 12.9053 7.23327ZM11.779 5.50488C9.39257 5.50488 7.45801 7.43944 7.45801 9.82585V12.2195C7.45801 14.6059 9.39257 16.5404 11.779 16.5404H12.9053C15.2917 16.5404 17.2262 14.6059 17.2262 12.2195V9.82585C17.2262 7.43944 15.2917 5.50488 12.9053 5.50488H11.779Z" fill="white"/>
    <path fill-rule="evenodd" clip-rule="evenodd" d="M12.3427 21.2879C8.594 21.2879 5.45887 22.2339 3.8775 23.4951L2.7998 22.1438C4.80947 20.541 8.39413 19.5596 12.3427 19.5596C16.2912 19.5596 19.8759 20.541 21.8855 22.1438L20.8079 23.4951C19.2265 22.2339 16.0914 21.2879 12.3427 21.2879Z" fill="#05C3DD"/>
    <path fill-rule="evenodd" clip-rule="evenodd" d="M25.2 15.9032H18.6641V14.1748H25.2V15.9032Z" fill="white"/>
    <path fill-rule="evenodd" clip-rule="evenodd" d="M21.0684 18.3065V11.7705H22.7967V18.3065H21.0684Z" fill="white"/>
</svg>
