<svg width="29" height="29" viewBox="0 0 29 29" fill="none" xmlns="http://www.w3.org/2000/svg">
    <path fill-rule="evenodd" clip-rule="evenodd" d="M22.2544 11.1205H6.78642L6.0747 22.6138H22.9255L22.2544 11.1205ZM6.78642 9.2793C5.81373 9.2793 5.00883 10.0359 4.94871 11.0067L4.23699 22.5C4.17137 23.5597 5.01306 24.455 6.0747 24.455H22.9255C23.9845 24.455 24.8253 23.5638 24.7636 22.5065L24.0925 11.0132C24.0357 10.0397 23.2296 9.2793 22.2544 9.2793H6.78642Z" fill="white"/>
    <path fill-rule="evenodd" clip-rule="evenodd" d="M13.5986 20.0761V9.97998H15.4399V20.0761H13.5986Z" fill="white"/>
    <path fill-rule="evenodd" clip-rule="evenodd" d="M22.1892 6.04232C17.4933 9.40549 11.1773 9.40549 6.48145 6.04232L7.55355 4.54541C11.6084 7.44949 17.0622 7.44949 21.117 4.54541L22.1892 6.04232Z" fill="#05C3DD"/>
</svg>
