<svg width="20" height="20" viewBox="0 0 20 20" fill="none" xmlns="http://www.w3.org/2000/svg">
    <path fill-rule="evenodd" clip-rule="evenodd" d="M10.0005 3.25972C9.42811 3.55395 8.26092 4.12671 7.33655 4.4016C6.64621 4.60688 5.82727 4.65363 5.17067 4.6541C4.90798 4.65429 4.65968 4.64686 4.44336 4.63701V10.9749C4.44336 12.2999 5.47421 13.6209 6.85971 14.7579C8.07739 15.7574 9.40351 16.4797 10.0005 16.7827C10.5975 16.4797 11.9237 15.7574 13.1414 14.7579C14.5269 13.6209 15.5577 12.2999 15.5577 10.9749V4.63701C15.3414 4.64686 15.093 4.65429 14.8304 4.6541C14.1738 4.65363 13.3549 4.60688 12.6645 4.4016C11.7401 4.12671 10.5729 3.55395 10.0005 3.25972ZM9.60736 1.77249C9.85328 1.64094 10.1478 1.64094 10.3937 1.77249C10.6635 1.9168 12.0913 2.66622 13.092 2.96381C13.5701 3.10599 14.2139 3.15366 14.8314 3.1541C15.345 3.15446 15.7899 3.12307 16.0488 3.10481C16.0954 3.10151 16.1359 3.09866 16.1699 3.09648C16.6434 3.06606 17.0577 3.43951 17.0577 3.92851V10.9749C17.0577 13.0308 15.5239 14.743 14.0929 15.9174C12.6194 17.1269 11.0258 17.9516 10.5017 18.209C10.1842 18.3649 9.81682 18.3649 9.49937 18.209C8.97529 17.9517 7.3817 17.1269 5.90809 15.9174C4.47712 14.743 2.94336 13.0308 2.94336 10.9749V3.92851C2.94336 3.43952 3.35762 3.06606 3.8312 3.09648C3.86505 3.09866 3.90562 3.10151 3.95222 3.10481C4.21107 3.12307 4.65603 3.15446 5.1696 3.1541C5.78714 3.15366 6.43088 3.10599 6.90899 2.96381C7.90977 2.66622 9.33757 1.9168 9.60736 1.77249Z" fill="white"/>
    <path d="M10.5928 6.78136C10.5928 6.43617 10.3129 6.15636 9.96776 6.15636C9.62259 6.15636 9.34276 6.43617 9.34276 6.78136V9.56008C9.34276 9.90526 9.62259 10.1851 9.96776 10.1851C10.3129 10.1851 10.5928 9.90526 10.5928 9.56008V6.78136Z" fill="white"/>
    <path d="M9.97474 13.0014C10.3233 13.0014 10.6059 12.7188 10.6059 12.3702C10.6059 12.0216 10.3233 11.739 9.97474 11.739C9.62616 11.739 9.34358 12.0216 9.34358 12.3702C9.34358 12.7188 9.62616 13.0014 9.97474 13.0014Z" fill="white"/>
</svg>
