<svg width="30" height="31" viewBox="0 0 30 31" fill="none" xmlns="http://www.w3.org/2000/svg">
    <path fill-rule="evenodd" clip-rule="evenodd" d="M13.1196 24.4108C17.2479 24.4108 20.5945 21.0642 20.5945 16.936C20.5945 12.8078 17.2479 9.46124 13.1196 9.46124C8.99142 9.46124 5.64483 12.8078 5.64483 16.936C5.64483 21.0642 8.99142 24.4108 13.1196 24.4108ZM13.1196 26.0557C18.1563 26.0557 22.2393 21.9727 22.2393 16.936C22.2393 11.8994 18.1563 7.81641 13.1196 7.81641C8.08301 7.81641 4 11.8994 4 16.936C4 21.9727 8.08301 26.0557 13.1196 26.0557Z" fill="white"/>
    <path fill-rule="evenodd" clip-rule="evenodd" d="M13.12 14.8441L11.0286 16.9355L13.12 19.0269L15.2115 16.9355L13.12 14.8441ZM13.6046 13.3902C13.337 13.1225 12.903 13.1225 12.6354 13.3902L9.57476 16.4509C9.30711 16.7185 9.30712 17.1525 9.57476 17.4201L12.6354 20.4807C12.903 20.7484 13.337 20.7484 13.6046 20.4807L16.6653 17.4201C16.9329 17.1525 16.9329 16.7185 16.6653 16.4509L13.6046 13.3902Z" fill="white"/>
    <path fill-rule="evenodd" clip-rule="evenodd" d="M23.5631 14.4635C24.0646 13.6706 24.3548 12.7308 24.3548 11.7232C24.3548 8.88803 22.0564 6.58964 19.2212 6.58964C18.5007 6.58964 17.815 6.73804 17.1927 7.00594C16.5111 6.72604 15.7943 6.51427 15.0508 6.37912C16.2009 5.4804 17.6485 4.94482 19.2212 4.94482C22.9648 4.94482 25.9996 7.97963 25.9996 11.7232C25.9996 13.6791 25.1713 15.4415 23.8462 16.6787C23.8284 15.9181 23.7313 15.177 23.5631 14.4635Z" fill="#05C3DD"/>
</svg>
