<svg width="28" height="29" viewBox="0 0 28 29" fill="none" xmlns="http://www.w3.org/2000/svg">
    <path d="M18.4295 11.9333C17.9151 12.4478 17.0809 12.4478 16.5665 11.9333C16.0521 11.4189 16.0521 10.5848 16.5665 10.0704C17.0809 9.55596 17.9151 9.55596 18.4295 10.0704C18.9439 10.5848 18.9439 11.4189 18.4295 11.9333Z" fill="#05C3DD"/>
    <path fill-rule="evenodd" clip-rule="evenodd" d="M16.6769 21.7229L15.3298 23.4807L15.3273 23.4783C14.8873 24.0503 13.9876 23.8988 13.7602 23.2167L13.0585 21.1166C12.9241 20.7132 12.7457 20.3049 12.5255 19.8991C11.4768 20.0286 10.3863 19.6863 9.59908 18.8991C8.81183 18.1119 8.46956 17.0215 8.59916 15.9726C8.19335 15.7526 7.78502 15.5742 7.38163 15.4397L5.28149 14.738C4.59695 14.5082 4.44782 13.611 5.01998 13.1709L6.78027 11.8262C7.90485 10.9657 9.26658 10.4693 10.6651 10.3862C11.2445 9.54765 11.9999 8.7922 12.9241 8.13208C15.4398 6.21289 18.3125 5.18851 21.239 5.17628L23.3318 5.1665L23.3268 7.26417C23.3146 10.1906 22.2902 13.0633 20.3711 15.579C19.711 16.5032 18.9555 17.2586 18.117 17.838C18.0314 19.2389 17.535 20.6008 16.6769 21.7229ZM12.9657 17.5667L13.2982 17.3124L13.303 17.3173C14.0952 18.3294 14.6795 19.4076 15.034 20.4662C15.8824 19.3588 16.205 17.9799 15.9997 16.6645C17.0339 16.2073 17.936 15.4372 18.7037 14.3517C20.2293 12.3616 21.2414 9.89236 21.2537 7.25928C18.6181 7.26906 16.1538 8.28122 14.1612 9.80925C13.0781 10.5745 12.3031 11.4766 11.8484 12.5133C10.5355 12.3103 9.15421 12.6306 8.04663 13.479C9.10526 13.8334 10.1834 14.4178 11.1956 15.2098L10.9414 15.5423C10.5037 16.1169 10.5599 16.9261 11.0709 17.4372C11.5819 17.9481 12.3911 18.0043 12.9657 17.5667Z" fill="white"/>
    <path d="M8.81377 19.686C9.09009 20.4073 9.23428 21.2214 8.94096 21.8815C8.40797 22.7616 7.4887 23.2457 6.51808 23.5904C5.98761 23.7493 5.41797 23.8691 4.68208 23.8227C4.62095 23.0916 4.75538 22.5122 4.90945 21.9817C5.25172 21.0086 5.7406 20.0894 6.61838 19.5589C7.27603 19.268 8.09017 19.4122 8.81377 19.686Z" fill="#05C3DD"/>
</svg>
